<svg width="19" height="21" viewBox="0 0 19 21" fill="none" xmlns="http://www.w3.org/2000/svg">
<path d="M7.76 2.42C10.95 2.42 13.54 5.01 13.54 8.2C13.54 11.39 10.95 13.98 7.76 13.98C4.57 13.98 1.98 11.39 1.98 8.2C1.98 5.01 4.57 2.42 7.76 2.42ZM7.76 0.720001C3.63 0.720001 0.279999 4.07 0.279999 8.2C0.279999 12.33 3.63 15.68 7.76 15.68C11.89 15.68 15.24 12.33 15.24 8.2C15.24 4.07 11.89 0.720001 7.76 0.720001Z" fill="#F4C589"/>
<path d="M12.56 12.92L11.12 14.36L17.24 20.48L18.68 19.04L12.56 12.92Z" fill="#F4C589"/>
</svg>
